# xmcd
#
# Track frame offsets: 
#        150
#        12801
#        26245
#        40486
#        53946
#        63813
#        79287
#        91082
#        105068
#        120456
#        132317
#        144505
#        157563
#        165172
#        176055
#
# Disc length: 2573 seconds
#
# Revision: 0
# Processed by: cddbd v1.5.2PL0 Copyright (c) Steve Scherf et al.
# Submitted via: ExactAudioCopy v1.0b3
#
DISCID=ad0a0b0f
DTITLE=Various Artist - Peace In The Valley - His Eye Is On The Sparr
DTITLE=ow
DYEAR=2011
DGENRE=Country
TTITLE0=Masters V - His Eye Is On The Sparrow
TTITLE1=The Oak Ridge Boys - Lead Me To Calvary
TTITLE2=Tommy Overstreet - I Surrender All
TTITLE3=The Speers - The Old Ship Zion
TTITLE4=Hovie Lister and The Statesmen - Turn Your Radio On
TTITLE5=Steve Ivey - Harley's Angels
TTITLE6=The Oak Ridge Boys - At The Roll Call
TTITLE7=Marilyn Sellars - On The Wings Of A Dove
TTITLE8=J.D. Sumner and The Stamps - His Name Is Wonderful
TTITLE9=Roy Drusky - At The Cross
TTITLE10=The Kingsmen Quartet - He Is The Only One
TTITLE11=The Oak Ridge Boys - The Old Country Church
TTITLE12=The LeFevres - Amen Chorus
TTITLE13=Carl Story - You Must Be Born Again
TTITLE14=Blackwood Brothers - Jesus Is Lord
EXTD=
EXTT0=
EXTT1=
EXTT2=
EXTT3=
EXTT4=
EXTT5=
EXTT6=
EXTT7=
EXTT8=
EXTT9=
EXTT10=
EXTT11=
EXTT12=
EXTT13=
EXTT14=
PLAYORDER=
